<svg width="136" height="38" viewBox="0 0 136 38" fill="none" xmlns="http://www.w3.org/2000/svg">
<path d="M49.6813 31.5225V31.6986H48.9197V31.5225C48.9197 31.3024 48.8301 31.1703 48.6509 31.0823C48.5165 31.0382 48.2477 31.0382 47.7997 31.0382C47.2622 31.0382 46.9038 31.0823 46.7694 31.1263C46.5454 31.2143 46.4558 31.3464 46.4558 31.6546C46.4558 32.0508 46.5454 32.271 46.6798 32.359C46.7694 32.4031 47.0382 32.4471 47.4861 32.4471C47.8893 32.4471 48.2925 32.4911 48.6509 32.4911C49.0541 32.5351 49.3229 32.6672 49.5469 32.8433C49.7709 33.0634 49.9053 33.4157 49.9053 33.8999C49.9053 34.5163 49.6813 34.9125 49.2781 35.1327C49.0093 35.2648 48.5165 35.3528 47.8445 35.3528C47.1726 35.3528 46.6798 35.3088 46.3662 35.1767C45.9182 35.0006 45.6942 34.6924 45.6942 34.2081V33.7679H46.4558V34.1641C46.4558 34.3842 46.5454 34.5603 46.7246 34.6044C46.9038 34.6924 47.2622 34.6924 47.8445 34.6924C48.2925 34.6924 48.5613 34.6924 48.6509 34.6484C48.9645 34.5603 49.0989 34.3402 49.0989 33.944C49.0989 33.6358 49.0541 33.4597 48.9645 33.3716C48.8749 33.2836 48.7405 33.1955 48.5165 33.1955C48.2925 33.1955 48.0237 33.1955 47.7997 33.1515C47.1726 33.1075 46.8142 33.0634 46.7694 33.0634C46.411 33.0194 46.1422 32.8873 45.963 32.7553C45.739 32.5351 45.6494 32.2269 45.6494 31.8307C45.6494 31.2143 45.8286 30.7741 46.2318 30.598C46.5006 30.4659 46.9934 30.4219 47.7997 30.4219C48.3821 30.4219 48.8301 30.4659 49.0989 30.598C49.4573 30.686 49.6813 31.0382 49.6813 31.5225Z" fill="#4E5151"/>
<path d="M51.2939 32.8434C51.2939 31.8308 51.4283 31.1704 51.6971 30.8622C51.9659 30.554 52.5483 30.3779 53.4443 30.3779C54.3402 30.3779 54.9226 30.554 55.1914 30.8622C55.4602 31.1704 55.5946 31.8308 55.5946 32.8434C55.5946 33.856 55.4602 34.5164 55.1914 34.8246C54.9226 35.1328 54.3402 35.3089 53.4443 35.3089C52.5483 35.3089 51.9659 35.1328 51.6971 34.8246C51.4283 34.5164 51.2939 33.856 51.2939 32.8434ZM52.0555 32.8434C52.0555 33.6799 52.1451 34.2082 52.2795 34.4283C52.4139 34.6485 52.8171 34.7365 53.4443 34.7365C54.0714 34.7365 54.4746 34.6485 54.609 34.4283C54.7434 34.2082 54.833 33.7239 54.833 32.8434C54.833 32.0069 54.7434 31.4786 54.609 31.2585C54.4746 31.0383 54.0714 30.9503 53.4443 30.9503C52.8171 30.9503 52.4139 31.0383 52.2795 31.2585C52.1451 31.4786 52.0555 32.0069 52.0555 32.8434Z" fill="#4E5151"/>
<path d="M60.7466 33.5038H61.4634V33.7679C61.4634 34.3843 61.2842 34.8246 60.8362 35.0447C60.5226 35.2208 60.0298 35.3089 59.3578 35.3089C58.4171 35.3089 57.7899 35.0887 57.5211 34.6925C57.2971 34.3843 57.2075 33.7239 57.2075 32.7553C57.2075 31.9188 57.3419 31.3025 57.5659 30.9943C57.8347 30.5981 58.4171 30.3779 59.2682 30.3779C59.985 30.3779 60.4778 30.466 60.7466 30.5981C61.1498 30.8182 61.3738 31.2144 61.3738 31.8308V31.9629H60.657V31.8308C60.657 31.4346 60.5226 31.1704 60.2986 31.0823C60.1194 30.9943 59.8058 30.9503 59.313 30.9503C58.6859 30.9503 58.3275 31.0823 58.1483 31.3465C58.0139 31.5666 57.9691 32.0949 57.9691 32.9314C57.9691 33.6799 58.0587 34.1201 58.1931 34.3403C58.3723 34.6044 58.8203 34.7365 59.4922 34.7365C59.985 34.7365 60.2986 34.6925 60.4778 34.5604C60.657 34.4283 60.7466 34.1642 60.7466 33.7679V33.5038Z" fill="#4E5151"/>
<path d="M63.8823 28.3965V29.189H63.1655V28.3965H63.8823ZM63.8823 30.4217V35.2205H63.1655V30.4217H63.8823Z" fill="#4E5151"/>
<path d="M69.8404 35.2207H69.1237V34.7364C68.9893 35.0006 68.7653 35.1327 68.4517 35.2207C68.2277 35.2647 67.9589 35.3088 67.5109 35.3088C66.8837 35.3088 66.4358 35.2207 66.167 35.0446C65.8086 34.8245 65.6294 34.4283 65.6294 33.8559C65.6294 33.2395 65.8086 32.8433 66.1222 32.6232C66.391 32.4471 66.8389 32.359 67.5109 32.359C68.4517 32.359 68.9893 32.5351 69.0341 32.8433H69.0789V31.9628C69.0789 31.5666 68.9445 31.3024 68.7205 31.1703C68.5413 31.0823 68.2277 31.0382 67.7797 31.0382C67.3765 31.0382 67.1077 31.0823 66.9285 31.1263C66.6598 31.2143 66.5254 31.3905 66.5254 31.6986V31.8747H65.7638V31.6986C65.7638 31.1263 65.943 30.7741 66.3462 30.598C66.615 30.4659 67.0629 30.4219 67.7349 30.4219C68.4517 30.4219 68.9893 30.5099 69.2581 30.642C69.6612 30.8621 69.8404 31.3024 69.8404 32.0068V35.2207ZM67.6453 34.6924C68.1381 34.6924 68.4517 34.6484 68.6757 34.5603C68.9893 34.4283 69.1237 34.1641 69.1237 33.7679C69.1237 33.3716 68.9893 33.1075 68.7205 32.9754C68.5413 32.8873 68.1829 32.8433 67.6453 32.8433C67.1525 32.8433 66.8389 32.8873 66.7045 32.9754C66.5254 33.0634 66.4358 33.3276 66.4358 33.6798C66.4358 34.1201 66.5254 34.3842 66.7493 34.5163C66.8389 34.6484 67.1525 34.6924 67.6453 34.6924Z" fill="#4E5151"/>
<path d="M72.4834 28.3965V35.2205H71.7666V28.3965H72.4834Z" fill="#4E5151"/>
<path d="M78.9795 28.3965V29.189H78.2627V28.3965H78.9795ZM78.9795 30.4217V35.2205H78.2627V30.4217H78.9795Z" fill="#4E5151"/>
<path d="M81.6227 30.4215V30.9939C81.8019 30.5536 82.2946 30.3335 83.1458 30.3335C83.8178 30.3335 84.2658 30.4215 84.5345 30.6417C84.8481 30.9058 84.9825 31.3461 84.9825 31.9625V35.2204H84.2658V31.9625C84.2658 31.5222 84.1762 31.258 83.997 31.126C83.8626 30.9939 83.549 30.9499 83.101 30.9499C82.5186 30.9499 82.1154 31.0379 81.9362 31.258C81.7571 31.4782 81.6675 31.8744 81.6675 32.4027V35.2204H80.9507V30.4215H81.6227Z" fill="#4E5151"/>
<path d="M89.5517 30.4215V30.9938H87.6701V34.0316C87.6701 34.2958 87.7149 34.4719 87.8045 34.5599C87.8941 34.648 88.0733 34.692 88.3421 34.692C88.6557 34.692 88.8349 34.6039 88.9693 34.4719C89.0141 34.3838 89.0589 34.1637 89.0589 33.8995V33.5473H89.7756V33.8995C89.7756 34.3838 89.6861 34.736 89.4621 34.9561C89.2381 35.1763 88.8797 35.3084 88.3869 35.3084C87.8045 35.3084 87.4461 35.2203 87.2669 35.0002C87.0877 34.78 86.9981 34.4278 86.9981 33.8555V31.0378H86.3262V30.4655H86.9981V29.3208H87.7149V30.4655H89.5517V30.4215Z" fill="#4E5151"/>
<path d="M94.3901 33.7679H95.1517V33.944C95.1517 34.5164 94.9277 34.9126 94.5245 35.0887C94.2557 35.2208 93.763 35.2648 93.091 35.2648C92.1502 35.2648 91.5678 35.0887 91.2543 34.7365C90.9855 34.4283 90.8511 33.7679 90.8511 32.8434C90.8511 31.8308 90.9855 31.1704 91.2991 30.8622C91.6126 30.554 92.195 30.3779 93.0462 30.3779C93.8526 30.3779 94.3901 30.51 94.7037 30.7742C95.0173 31.0823 95.1517 31.6547 95.1517 32.4912V32.9755H91.6126C91.6126 33.7239 91.7022 34.2082 91.8366 34.4283C91.971 34.6044 92.3742 34.6925 93.0462 34.6925C93.5838 34.6925 93.9422 34.6485 94.0766 34.5604C94.2557 34.4724 94.3453 34.2522 94.3453 33.944V33.7679H94.3901ZM91.6126 32.4031H94.3453C94.3453 31.7427 94.2557 31.3465 94.0766 31.1704C93.9422 31.0383 93.5838 30.9503 93.0014 30.9503C92.3742 30.9503 91.971 31.0383 91.7918 31.2585C91.747 31.4346 91.6574 31.7868 91.6126 32.4031Z" fill="#4E5151"/>
<path d="M97.6601 28.3965V35.2205H96.9434V28.3965H97.6601Z" fill="#4E5151"/>
<path d="M100.303 28.3965V35.2205H99.5864V28.3965H100.303Z" fill="#4E5151"/>
<path d="M102.947 28.3965V29.189H102.23V28.3965H102.947ZM102.947 30.4217V35.2205H102.23V30.4217H102.947Z" fill="#4E5151"/>
<path d="M108.95 30.4215V35.7927C108.95 36.3651 108.726 36.8053 108.323 37.0695C107.964 37.2896 107.471 37.3777 106.799 37.3777C106.127 37.3777 105.635 37.2896 105.366 37.1135C105.007 36.8934 104.828 36.4531 104.828 35.7927H105.545C105.545 36.233 105.635 36.4971 105.859 36.6292C105.993 36.7173 106.307 36.7613 106.755 36.7613C107.247 36.7613 107.606 36.7173 107.785 36.5852C108.054 36.4531 108.188 36.1449 108.188 35.7047V34.604C108.054 35.0443 107.516 35.2644 106.62 35.2644C105.859 35.2644 105.366 35.0443 105.052 34.6481C104.783 34.2958 104.694 33.6795 104.694 32.799C104.694 31.9184 104.783 31.3021 105.007 30.9499C105.276 30.5096 105.814 30.3335 106.62 30.3335C107.427 30.3335 107.964 30.5536 108.188 30.9939V30.3775H108.95V30.4215ZM106.799 34.6921C107.427 34.6921 107.83 34.516 108.054 34.1638C108.188 33.9436 108.233 33.5034 108.233 32.843C108.233 32.0945 108.143 31.6543 108.009 31.3901C107.83 31.0819 107.427 30.9499 106.799 30.9499C106.172 30.9499 105.769 31.126 105.635 31.4341C105.545 31.6543 105.455 32.0945 105.455 32.843C105.455 33.5474 105.5 34.0317 105.59 34.2078C105.769 34.516 106.172 34.6921 106.799 34.6921Z" fill="#4E5151"/>
<path d="M114.191 33.7679H114.953V33.944C114.953 34.5164 114.729 34.9126 114.325 35.0887C114.057 35.2208 113.564 35.2648 112.892 35.2648C111.951 35.2648 111.369 35.0887 111.055 34.7365C110.786 34.4283 110.652 33.7679 110.652 32.8434C110.652 31.8308 110.786 31.1704 111.1 30.8622C111.413 30.554 111.996 30.3779 112.847 30.3779C113.653 30.3779 114.191 30.51 114.505 30.7742C114.818 31.0823 114.953 31.6547 114.953 32.4912V32.9755H111.413C111.413 33.7239 111.503 34.2082 111.637 34.4283C111.772 34.6044 112.175 34.6925 112.847 34.6925C113.385 34.6925 113.743 34.6485 113.877 34.5604C114.057 34.4724 114.146 34.2522 114.146 33.944V33.7679H114.191ZM111.458 32.4031H114.191C114.191 31.7427 114.101 31.3465 113.922 31.1704C113.788 31.0383 113.429 30.9503 112.847 30.9503C112.22 30.9503 111.817 31.0383 111.682 31.2585C111.593 31.4346 111.503 31.7868 111.458 32.4031Z" fill="#4E5151"/>
<path d="M117.506 30.4215V30.9939C117.685 30.5536 118.178 30.3335 119.029 30.3335C119.701 30.3335 120.149 30.4215 120.418 30.6417C120.731 30.9058 120.866 31.3461 120.866 31.9625V35.2204H120.149V31.9625C120.149 31.5222 120.059 31.258 119.88 31.126C119.746 30.9939 119.432 30.9499 118.984 30.9499C118.402 30.9499 117.999 31.0379 117.82 31.258C117.64 31.4782 117.551 31.8744 117.551 32.4027V35.2204H116.834V30.4215H117.506Z" fill="#4E5151"/>
<path d="M126.108 33.5038H126.824V33.7679C126.824 34.3843 126.645 34.8246 126.242 35.0447C125.928 35.2208 125.436 35.3089 124.764 35.3089C123.823 35.3089 123.196 35.0887 122.927 34.6925C122.703 34.3843 122.613 33.7239 122.613 32.7553C122.613 31.9188 122.748 31.3025 122.972 30.9943C123.24 30.5981 123.823 30.3779 124.674 30.3779C125.391 30.3779 125.884 30.466 126.152 30.5981C126.556 30.8182 126.78 31.2144 126.78 31.8308V31.9629H126.063V31.8308C126.063 31.4346 125.928 31.1704 125.704 31.0823C125.525 30.9943 125.212 30.9503 124.719 30.9503C124.092 30.9503 123.733 31.0823 123.554 31.3465C123.42 31.5666 123.375 32.0949 123.375 32.9314C123.375 33.6799 123.464 34.1201 123.599 34.3403C123.778 34.6044 124.226 34.7365 124.898 34.7365C125.391 34.7365 125.704 34.6925 125.884 34.5604C126.063 34.4283 126.152 34.1642 126.152 33.7679V33.5038H126.108Z" fill="#4E5151"/>
<path d="M131.886 33.7679H132.648V33.944C132.648 34.5164 132.424 34.9126 132.021 35.0887C131.752 35.2208 131.259 35.2648 130.587 35.2648C129.646 35.2648 129.064 35.0887 128.75 34.7365C128.482 34.4283 128.347 33.7679 128.347 32.8434C128.347 31.8308 128.482 31.1704 128.795 30.8622C129.109 30.554 129.691 30.3779 130.542 30.3779C131.349 30.3779 131.886 30.51 132.2 30.7742C132.513 31.0823 132.648 31.6547 132.648 32.4912V32.9755H129.109C129.109 33.7239 129.198 34.2082 129.333 34.4283C129.467 34.6044 129.87 34.6925 130.542 34.6925C131.08 34.6925 131.438 34.6485 131.573 34.5604C131.752 34.4724 131.841 34.2522 131.841 33.944V33.7679H131.886ZM129.154 32.4031H131.886C131.886 31.7427 131.797 31.3465 131.617 31.1704C131.483 31.0383 131.125 30.9503 130.542 30.9503C129.915 30.9503 129.512 31.0383 129.333 31.2585C129.243 31.4346 129.198 31.7868 129.154 32.4031Z" fill="#4E5151"/>
<path d="M18.0985 35.5731C28.0941 35.5731 36.197 27.6098 36.197 17.7866C36.197 7.96331 28.0941 0 18.0985 0C8.10299 0 0 7.96331 0 17.7866C0 27.6098 8.10299 35.5731 18.0985 35.5731Z" fill="#0A74BB"/>
<path d="M18.905 20.7363L18.0986 20.7804L17.2922 20.7363C17.2922 20.7363 17.6954 21.4407 17.6954 22.9817C17.6954 25.0949 17.0234 25.9754 17.0234 25.9754L18.0986 26.2836L19.1738 25.9754C19.1738 25.9754 18.5018 25.0949 18.5018 22.9817C18.5018 21.4407 18.905 20.7363 18.905 20.7363Z" fill="white"/>
<path d="M18.905 20.7363L18.0986 20.7804L17.2922 20.7363C17.2922 20.7363 17.6954 21.4407 17.6954 22.9817C17.6954 25.0949 17.0234 25.9754 17.0234 25.9754L18.0986 26.2836L19.1738 25.9754C19.1738 25.9754 18.5018 25.0949 18.5018 22.9817C18.5018 21.4407 18.905 20.7363 18.905 20.7363Z" fill="white"/>
<path d="M21.4137 16.5541L21.0105 15.8497L20.5625 15.1893C20.5625 15.1893 21.3689 15.1893 22.7576 14.3969C24.6391 13.3402 25.0871 12.3276 25.0871 12.3276L25.8935 13.0761L26.1623 14.1327C26.1623 14.1327 25.0423 14.0006 23.1608 15.0573C21.7721 15.8497 21.4137 16.5541 21.4137 16.5541Z" fill="white"/>
<path d="M21.4137 16.5541L21.0105 15.8497L20.5625 15.1893C20.5625 15.1893 21.3689 15.1893 22.7576 14.3969C24.6391 13.3402 25.0871 12.3276 25.0871 12.3276L25.8935 13.0761L26.1623 14.1327C26.1623 14.1327 25.0423 14.0006 23.1608 15.0573C21.7721 15.8497 21.4137 16.5541 21.4137 16.5541Z" fill="white"/>
<path d="M15.6346 15.1453L15.2314 15.8497L14.873 16.5541C14.873 16.5541 14.4698 15.8497 13.0811 15.0573C11.1995 14.0006 10.0796 14.1327 10.0796 14.1327L10.3484 13.0761L11.1547 12.3276C11.1547 12.3276 11.6027 13.3402 13.4843 14.3969C14.8282 15.1893 15.6346 15.1453 15.6346 15.1453Z" fill="white"/>
<path d="M15.6346 15.1453L15.2314 15.8497L14.873 16.5541C14.873 16.5541 14.4698 15.8497 13.0811 15.0573C11.1995 14.0006 10.0796 14.1327 10.0796 14.1327L10.3484 13.0761L11.1547 12.3276C11.1547 12.3276 11.6027 13.3402 13.4843 14.3969C14.8282 15.1893 15.6346 15.1453 15.6346 15.1453Z" fill="white"/>
<path d="M18.2778 13.0316C18.2778 12.2392 18.5466 12.019 18.5466 12.019L18.1434 12.1511L17.7402 12.019C17.7402 12.019 18.009 12.2392 18.009 13.0316C18.009 13.7801 17.7402 14.0002 17.7402 14.0002L18.1434 13.9122L18.5466 14.0002C18.5466 13.9562 18.2778 13.7361 18.2778 13.0316Z" fill="white"/>
<path d="M14.1119 19.5917C13.4399 19.9879 13.0815 19.8559 13.0815 19.8559L13.3951 20.164L13.4847 20.5603C13.4847 20.5603 13.5295 20.2081 14.2463 19.8118C14.8735 19.4596 15.2319 19.5477 15.2319 19.5477L14.9631 19.2395L14.8287 18.8433C14.8287 18.8873 14.7391 19.2395 14.1119 19.5917Z" fill="white"/>
<path d="M21.9963 19.8557C22.6683 20.2519 22.7579 20.6041 22.7579 20.6041L22.8475 20.2079L23.1611 19.8997C23.1611 19.8997 22.8475 20.0318 22.1307 19.6356C21.5035 19.2834 21.4139 18.9312 21.4139 18.9312L21.2795 19.3274L21.0107 19.6356C21.0107 19.5915 21.3243 19.4595 21.9963 19.8557Z" fill="white"/>
<path d="M21.593 28.8372C22.1306 30.7304 20.9658 32.7115 18.9947 33.2399C17.0684 33.7682 15.0525 32.6235 14.5149 30.6863C13.9773 28.7932 15.1421 26.812 17.1132 26.2837C19.0843 25.7994 21.1002 26.9001 21.593 28.8372Z" fill="white"/>
<path d="M20.6972 14.9692C19.2636 13.5604 16.9789 13.5604 15.5454 14.9692C14.1118 16.3781 14.1118 18.6234 15.5454 20.0322C16.9789 21.4411 19.2636 21.4411 20.6972 20.0322C22.1307 18.6234 22.1307 16.334 20.6972 14.9692Z" fill="white"/>
<path d="M11.603 13.2958L10.8414 10.4341C10.6174 9.55361 10.035 8.76114 9.13906 8.27686C7.39192 7.30828 5.15201 7.88062 4.16644 9.59764C3.18088 11.3147 3.76326 13.516 5.51039 14.4845C6.36156 14.9688 7.39192 15.1009 8.28789 14.8367L11.1998 14.0883C11.4686 13.9562 11.6926 13.604 11.603 13.2958Z" fill="white"/>
<path d="M20.6971 27.208L18.5467 25.0948C18.3227 24.8747 17.9196 24.8747 17.6508 25.0948L15.5005 27.208C14.8285 27.8684 14.4253 28.749 14.4253 29.7616C14.4253 31.7427 16.038 33.3277 18.054 33.3277C20.0699 33.3277 21.6826 31.7427 21.6826 29.7616C21.7722 28.749 21.369 27.8684 20.6971 27.208Z" fill="white"/>
<path d="M32.5683 11.4028C32.5683 11.3588 32.5683 11.3588 32.5683 11.4028C32.5683 10.7424 32.434 10.126 32.0756 9.55369C31.09 7.83668 28.8501 7.26434 27.103 8.23291C26.2518 8.7172 25.6246 9.50967 25.4006 10.3902L24.639 13.2959C24.5494 13.6481 24.7286 13.9563 25.087 14.0444L27.5509 14.7048C28.8501 15.2331 30.418 14.9689 31.4932 13.9123C32.1652 13.2519 32.5236 12.3714 32.5683 11.4468V11.4028Z" fill="white"/>
<path d="M20.3385 9.95025C20.3385 11.139 19.3529 12.1075 18.1434 12.1075C16.9338 12.1075 15.9482 11.139 15.9482 9.95025C15.9482 8.76154 16.9338 7.79297 18.1434 7.79297C19.3529 7.79297 20.3385 8.76154 20.3385 9.95025Z" fill="white"/>
<path d="M10.3933 19.4156C11.4685 18.7992 12.8124 19.1514 13.3948 20.2081C14.022 21.2647 13.6636 22.5855 12.5884 23.1578C11.5133 23.7742 10.1693 23.422 9.58693 22.3653C8.95975 21.3527 9.31814 20.032 10.3933 19.4156Z" fill="white"/>
<path d="M23.6985 23.1578C22.6233 22.5415 22.2649 21.2207 22.8921 20.2081C23.5193 19.1514 24.8632 18.7992 25.8936 19.4156C26.9688 20.032 27.3271 21.3527 26.7 22.3653C26.0728 23.3779 24.7288 23.7302 23.6985 23.1578Z" fill="white"/>
<path d="M49.9502 24.5224H45.7839V16.2895L38.437 2.99365H43.1408L47.8447 12.1951L52.5933 2.99365H57.2971L49.9502 16.2895V24.5224Z" fill="#0275BC"/>
<path d="M88.0738 24.5225H84.0867V23.0696C83.5939 23.642 82.9667 24.0822 82.2948 24.4344C81.578 24.7426 80.8164 24.9187 79.9652 24.9187C78.9797 24.9187 78.1285 24.7426 77.3221 24.3904C76.5158 24.0382 75.8438 23.5539 75.3062 22.9816C74.7686 22.3652 74.3207 21.6168 74.0071 20.7803C73.6935 19.8998 73.5591 18.9752 73.5591 17.9186V8.54102H77.7253V17.8746C77.7253 18.0947 77.7701 18.4029 77.8149 18.7551C77.8597 19.1073 77.9941 19.4595 78.2181 19.8117C78.4421 20.1639 78.7557 20.4281 79.1141 20.6922C79.5173 20.9124 80.0548 21.0444 80.7268 21.0444C81.6676 21.0444 82.4292 20.7362 83.0115 20.1639C83.5939 19.5475 83.8627 18.7991 83.8627 17.9186V8.54102H88.0289V24.5225H88.0738Z" fill="#0275BC"/>
<path d="M108.188 24.5224H103.17L94.2556 9.20133V24.5224H90.0894V2.99365H95.1068L104.022 18.3147V2.99365H108.188V24.5224Z" fill="#0275BC"/>
<path d="M124.853 21.7491L124.674 21.9692C123.957 22.8938 123.061 23.6422 121.941 24.1265C120.821 24.6548 119.522 24.919 118.088 24.919C116.968 24.919 115.893 24.6988 114.863 24.2586C113.833 23.8183 112.981 23.246 112.22 22.4535C111.458 21.7051 110.876 20.8245 110.428 19.8119C109.98 18.7993 109.756 17.6987 109.756 16.554C109.756 15.4093 109.98 14.3087 110.428 13.2961C110.876 12.2835 111.458 11.403 112.22 10.6105C112.981 9.86204 113.877 9.24567 114.863 8.80541C115.893 8.36515 116.968 8.14502 118.088 8.14502C119.298 8.14502 120.418 8.36515 121.493 8.80541C122.568 9.24567 123.464 9.90606 124.226 10.7426C124.987 11.6231 125.57 12.6357 125.928 13.9124C126.286 15.1452 126.421 16.554 126.286 18.1389H114.012C114.28 19.1515 114.773 19.9 115.49 20.4723C116.207 21.0447 117.058 21.3088 118.044 21.3088C118.671 21.3088 119.298 21.1768 119.88 20.9566C120.463 20.7365 120.911 20.3403 121.269 19.8119L124.853 21.7491ZM122.12 14.793C121.851 13.8684 121.359 13.12 120.642 12.5917C119.925 12.0633 119.029 11.7552 118.044 11.7552C117.103 11.7552 116.252 12.0193 115.535 12.5917C114.818 13.12 114.325 13.8684 114.012 14.793H122.12Z" fill="#0275BC"/>
<path d="M70.9608 16.334C70.9608 11.7552 67.2425 8.10107 62.5835 8.10107C57.9244 8.10107 54.251 11.7552 54.251 16.334C54.251 20.9127 57.9244 24.5228 62.5835 24.5228C67.2425 24.5228 70.9608 20.9127 70.9608 16.334ZM62.5835 20.8687H57.9692V16.334C57.9692 13.8245 60.0748 11.7552 62.5835 11.7552C65.137 11.7552 67.2425 13.8245 67.2425 16.334C67.2425 18.8434 65.137 20.8687 62.5835 20.8687Z" fill="#398ECD"/>
<path d="M132.648 12.1955H135.604V8.54133H132.648V1.45312H128.481V8.54133H126.51V12.1955H128.481V24.5228H132.648V12.1955Z" fill="#0275BC"/>
</svg>
