<svg width="42" height="42" viewBox="0 0 42 42" fill="none" xmlns="http://www.w3.org/2000/svg">
<g filter="url(#filter0_d)">
<circle cx="21" cy="17" r="17" fill="white"/>
</g>
<path fill-rule="evenodd" clip-rule="evenodd" d="M28.2 10H13.8C12.81 10 12 10.81 12 11.8V28L15.6 24.4H28.2C29.19 24.4 30 23.59 30 22.6V11.8C30 10.81 29.19 10 28.2 10ZM28.2 22.6H14.853L13.8 23.653V11.8H28.2V22.6ZM18.3 16.3H16.5V18.1H18.3V16.3ZM23.7 16.3H25.5V18.1H23.7V16.3ZM21.9 16.3H20.1V18.1H21.9V16.3Z" fill="#091632"/>
<defs>
<filter id="filter0_d" x="0" y="0" width="42" height="42" filterUnits="userSpaceOnUse" color-interpolation-filters="sRGB">
<feFlood flood-opacity="0" result="BackgroundImageFix"/>
<feColorMatrix in="SourceAlpha" type="matrix" values="0 0 0 0 0 0 0 0 0 0 0 0 0 0 0 0 0 0 127 0"/>
<feOffset dy="4"/>
<feGaussianBlur stdDeviation="2"/>
<feColorMatrix type="matrix" values="0 0 0 0 0.623529 0 0 0 0 0.541176 0 0 0 0 0.541176 0 0 0 0.2 0"/>
<feBlend mode="normal" in2="BackgroundImageFix" result="effect1_dropShadow"/>
<feBlend mode="normal" in="SourceGraphic" in2="effect1_dropShadow" result="shape"/>
</filter>
</defs>
</svg>
