<svg width="42" height="42" viewBox="0 0 42 42" fill="none" xmlns="http://www.w3.org/2000/svg">
<g filter="url(#filter0_d)">
<circle cx="21" cy="17" r="17" fill="white"/>
</g>
<path fill-rule="evenodd" clip-rule="evenodd" d="M29.991 14.3C29.991 13.652 29.658 13.085 29.145 12.77L21 8L12.855 12.77C12.342 13.085 12 13.652 12 14.3V23.3C12 24.29 12.81 25.1 13.8 25.1H28.2C29.19 25.1 30 24.29 30 23.3L29.991 14.3ZM28.191 14.3V14.309L21 18.8L13.8 14.3L21 10.088L28.191 14.3ZM13.8 16.406V23.3H28.2L28.191 16.433L21 20.924L13.8 16.406Z" fill="#091632"/>
<defs>
<filter id="filter0_d" x="0" y="0" width="42" height="42" filterUnits="userSpaceOnUse" color-interpolation-filters="sRGB">
<feFlood flood-opacity="0" result="BackgroundImageFix"/>
<feColorMatrix in="SourceAlpha" type="matrix" values="0 0 0 0 0 0 0 0 0 0 0 0 0 0 0 0 0 0 127 0"/>
<feOffset dy="4"/>
<feGaussianBlur stdDeviation="2"/>
<feColorMatrix type="matrix" values="0 0 0 0 0.623529 0 0 0 0 0.541176 0 0 0 0 0.541176 0 0 0 0.2 0"/>
<feBlend mode="normal" in2="BackgroundImageFix" result="effect1_dropShadow"/>
<feBlend mode="normal" in="SourceGraphic" in2="effect1_dropShadow" result="shape"/>
</filter>
</defs>
</svg>
