<svg width="12" height="10" viewBox="0 0 12 10" fill="none" xmlns="http://www.w3.org/2000/svg">
<path d="M0.750326 5.58334H9.84216L6.71316 8.71234C6.48537 8.94013 6.48537 9.30953 6.71301 9.53717C6.94081 9.76497 7.31035 9.76497 7.53814 9.53717L11.6627 5.41242C11.6899 5.3853 11.7141 5.3554 11.7354 5.32361C11.7451 5.30888 11.752 5.29299 11.7605 5.27767C11.7701 5.25959 11.7812 5.24238 11.7889 5.22328C11.7972 5.20359 11.8019 5.18317 11.8077 5.16276C11.8125 5.14657 11.8188 5.13111 11.8221 5.11449C11.8297 5.07657 11.8337 5.03836 11.8337 5.00001C11.8337 4.99957 11.8335 4.99913 11.8335 4.99869C11.8334 4.96092 11.8296 4.92301 11.8221 4.88582C11.8186 4.86832 11.8121 4.85213 11.807 4.83492C11.8013 4.81553 11.7969 4.79584 11.789 4.77703C11.7806 4.75676 11.7692 4.73838 11.7587 4.71928C11.7508 4.70499 11.7446 4.6904 11.7355 4.67669C11.7142 4.64446 11.6897 4.61442 11.6625 4.58715L7.53799 0.462839C7.3102 0.235047 6.94081 0.235047 6.71301 0.462693C6.48522 0.690485 6.48522 1.05988 6.71301 1.28782L9.84201 4.41667H0.750326C0.42818 4.41667 0.166992 4.67786 0.166992 5.00001C0.166992 5.32215 0.42818 5.58334 0.750326 5.58334Z" fill="#091632"/>
</svg>
