<svg width="50" height="50" viewBox="0 0 50 50" fill="none" xmlns="http://www.w3.org/2000/svg">
<path fill-rule="evenodd" clip-rule="evenodd" d="M25 50C38.8071 50 50 38.8071 50 25C50 11.1929 38.8071 0 25 0C11.1929 0 0 11.1929 0 25C0 38.8071 11.1929 50 25 50ZM25 47C37.1503 47 47 37.1503 47 25C47 12.8497 37.1503 3 25 3C12.8497 3 3 12.8497 3 25C3 37.1503 12.8497 47 25 47ZM14 20.118V34.6582H18.7101V20.118H14ZM16.6647 13C15.0534 13 14 14.0859 14 15.5115C14 16.9076 15.0223 18.0248 16.6036 18.0248H16.6337C18.276 18.0248 19.2988 16.9076 19.2988 15.5115C19.2683 14.0859 18.276 13 16.6647 13ZM30.5769 20.118C28.0762 20.118 26.9566 21.5293 26.3314 22.5194V20.4599H21.6208C21.6828 21.8242 21.6208 35 21.6208 35H26.3314V26.8796C26.3314 26.445 26.362 26.0115 26.4865 25.7004C26.8269 24.8323 27.602 23.9334 28.9033 23.9334C30.6083 23.9334 31.2899 25.2667 31.2899 27.2206V34.9996H35.9998L36 26.6627C36 22.1966 33.6764 20.118 30.5769 20.118Z" fill="black"/>
</svg>
