<svg width="50" height="50" viewBox="0 0 50 50" fill="none" xmlns="http://www.w3.org/2000/svg">
<path fill-rule="evenodd" clip-rule="evenodd" d="M50 25C50 11.1929 38.8071 0 25 0C11.1929 0 0 11.1929 0 25C0 38.8071 11.1929 50 25 50C38.8071 50 50 38.8071 50 25ZM47 25C47 12.8497 37.1503 3 25 3C12.8497 3 3 12.8497 3 25C3 37.1503 12.8497 47 25 47C37.1503 47 47 37.1503 47 25ZM15.9311 31.9384C15.9311 33.4789 17.1249 34.7224 18.5942 34.7224C20.0692 34.7224 21.2608 33.479 21.2609 31.9384C21.2609 30.4059 20.0693 29.1484 18.5942 29.1484C17.1249 29.1484 15.9311 30.4059 15.9311 31.9384ZM15.9311 24.8802C18.4283 24.8802 20.7765 25.9046 22.5443 27.7605C24.3103 29.6124 25.2845 32.0873 25.2845 34.7165L29.1366 34.7164C29.1366 27.0737 23.2104 20.8569 15.9311 20.8569V24.8802ZM15.9311 17.7476C24.8359 17.7476 32.0848 25.3602 32.0848 34.7143L35.9311 34.7144C35.9311 23.1427 26.9581 13.7224 15.9311 13.7224V17.7476Z" fill="black"/>
</svg>
